<?xml version="1.0" encoding="UTF-8"?>
<svg id="Layer_1" xmlns="http://www.w3.org/2000/svg" xmlns:xlink="http://www.w3.org/1999/xlink" version="1.1" viewBox="0 0 122.9 114">
  <!-- Generator: Adobe Illustrator 29.0.0, SVG Export Plug-In . SVG Version: 2.1.0 Build 186)  -->
  <defs>
    <style>
      .st0 {
        fill: #97df0f;
      }

      .st1 {
        fill: url(#linear-gradient);
      }

      .st2 {
        fill: #ff74bf;
      }

      .st3 {
        fill: #c5efff;
      }

      .st4 {
        fill: #6ed10e;
      }

      .st5 {
        fill: #6ec410;
      }

      .st6 {
        fill: #2c2a50;
      }

      .st7 {
        fill: #f5f5f5;
      }

      .st8 {
        fill: #060436;
      }
    </style>
    <linearGradient id="linear-gradient" x1="43.8" y1="114.3" x2="77.4" y2="7.2" gradientTransform="translate(0 116) scale(1 -1)" gradientUnits="userSpaceOnUse">
      <stop offset=".2" stop-color="#a2e30c"/>
      <stop offset="1" stop-color="#6ece0f"/>
    </linearGradient>
  </defs>
  <circle class="st3" cx="60.6" cy="58.3" r="54.8"/>
  <path class="st1" d="M18.5,0c3,0,5.5,2.5,5.5,5.5s-2.5,5.5-5.5,5.5-5.5-2.5-5.5-5.5S15.5,0,18.5,0ZM90.3,34.3c-3.8-12.7-8.7-15.4-15.9-17.5-3.9-1.1-15.5.6-20.6,1.7-4.5-5.1-17.1-14.2-22.5-13h0c-9.1,1.9,0,9.2,1.4,13.4,1.6,4.9,2,6.3,1.9,7.7-3.5,2-6.8,4.2-8.1,5.8-4.7,5.9-7,11-2.6,23.5,3.7,10.4,14.1,43.2,17.5,53.6,11.2,4.2,23.9,4.8,36.2.8,12.9-4.2,23.2-12.8,29.8-23.6-3.8-11.5-14-42.2-17-52.5h-.1Z"/>
  <path class="st5" d="M93.2,43.6c-1.2-3.8-2.2-7-2.9-9.2-.9-3-1.9-5.5-2.9-7.5-11.8-2.8-43.6-.6-65.6,21.2.3,2.3,1,4.9,2.1,7.9.8,2.2,1.8,5.3,3.1,9,8.5-9.4,34.1-27,66.2-21.4Z"/>
  <circle class="st8" cx="46" cy="62.8" r="2.6"/>
  <circle class="st8" cx="76.7" cy="52.8" r="2.6"/>
  <path class="st6" d="M64.6,70c-1.6.5-6,1.5-9.3,1-4.2-.5-11.2.3-10.8,7s9.1,17.1,27,11.6h.4c17.7-6.2,18.7-19.7,15-25.3-3.6-5.7-9.8-2.2-12.8.6-2.4,2.3-6.5,4.1-8.1,4.6l-1.4.4h0Z"/>
  <path class="st2" d="M87.1,77.4c-6.1-3.3-13.2-4-19.8-1.8-6.7,2.2-12.1,7-15.1,13.3,4.4,2.4,10.8,3.3,19.3.8h.4c8.5-3.1,13.1-7.6,15.2-12.3Z"/>
  <path class="st7" d="M80.6,75.2c-1.2,1.6,0,4.2,1.3,6.1-1.8-1.4-4.1-2.5-5.7-1.4-1.8,1.1-1.5,4-.9,6.3-1.2-1.9-3-3.9-5.5-3.1-2.6.9-2.8,3.7-2.6,6-.8-2.3-2.3-4.9-4.5-4.8-2,0-3.2,2.5-3.8,4.6,0-2.4-.6-5.3-2.5-5.9-2.4-.7-4.8,2.2-6.1,4.4,4.4,3.4,11.5,5.2,21.4,2.1h.4c9.8-3.5,14.5-9.2,16.1-14.5-2.3-1-5.9-1.9-7.4,0l-.2.2Z"/>
  <path class="st8" d="M85.9,23.9c-11.4-3-42.5-1.6-64.7,20.9-1.2-.7-2.5-1.3-3.9-1.8-5.6-1.9-11.8-1.5-17.1,1,1.7,4.8,5.7,8.9,11.4,10.8,1.1.4,2.2.7,3.4.9-1,.5-2,1-2.9,1.7-5,3.4-7.8,8.4-8.1,13.5,5.6,1,11.8-.2,16.8-3.6,2.7-1.8,4.7-4.1,6.1-6.6,9.3-9.6,34.2-25.9,65.4-20.4.8-.2-2.2-11.6-6.3-16.4h0Z"/>
  <path class="st0" d="M122.9,50.2c-2.7-2.7-8.3-3.7-10.4-3.2-1.5-8.8-4.2-.4-6.1,2.2-2.8,1.2-9.6,6.4-9.6,6.4l7.6,23.2s8.1-20,18-26.4c.8-.5,1.1-1.5.5-2.1h0Z"/>
  <path class="st0" d="M7.8,88.7c.6-3.6,4.4-7.7,6.3-8.4-3.8-7.8,3.1-2.8,6.1-1.8,2.9-.7,11.2-.4,11.2-.4l7.3,22.6s-17.8-11.1-29.3-10.4c-.9,0-1.8-.6-1.6-1.5h0Z"/>
  <path class="st4" d="M99.5,53.5c-1.5,1.1-2.7,2-2.7,2l7.6,23.2s1.8-4.5,4.8-9.9c-6.7-6.3-9.2-12.5-9.7-15.3Z"/>
  <path class="st4" d="M29.3,95.5c5.4,2.5,9.4,5,9.4,5l-7.3-22.6h-3.2c1.2,2.4,2.8,8.8,1.1,17.6Z"/>
</svg>